<?xml version="1.0" standalone="no"?>
<!DOCTYPE svg PUBLIC "-//W3C//DTD SVG 20010904//EN"
 "http://www.w3.org/TR/2001/REC-SVG-20010904/DTD/svg10.dtd">
<svg version="1.0" xmlns="http://www.w3.org/2000/svg"
 width="512.000000pt" height="512.000000pt" viewBox="0 0 512.000000 512.000000"
 preserveAspectRatio="xMidYMid meet">
<metadata>
Created by potrace 1.11, written by Peter Selinger 2001-2013
</metadata>
<g transform="translate(0.000000,512.000000) scale(0.100000,-0.100000)"
fill="#000000" stroke="none">
<path d="M1030 4730 l-65 -5 -140 -186 c-77 -102 -148 -197 -158 -210 -10 -13
-164 -219 -342 -457 -245 -325 -325 -439 -325 -460 0 -26 38 -77 164 -222 12
-14 105 -124 207 -245 361 -429 564 -670 585 -695 17 -19 333 -395 492 -585
293 -349 387 -461 392 -465 3 -3 62 -72 130 -155 118 -142 162 -193 185 -219
9 -9 75 -88 180 -215 11 -13 25 -29 30 -35 6 -6 43 -50 83 -99 69 -82 75 -87
111 -87 38 0 42 4 187 176 82 98 263 312 403 478 333 395 308 365 476 566 81
96 159 189 174 205 14 17 46 55 71 85 24 30 60 73 80 96 45 52 64 74 185 219
55 66 108 129 118 140 10 11 44 52 75 90 31 39 59 72 62 75 3 3 53 61 111 130
128 152 538 640 585 695 20 24 34 51 34 67 0 20 -121 189 -480 668 -265 353
-487 643 -494 646 -17 6 -3032 10 -3116 4z m1370 -156 c0 -2 -170 -231 -379
-509 l-379 -505 -251 502 c-138 277 -251 506 -251 509 0 3 284 6 630 6 347 -1
630 -2 630 -3z m1332 -505 l-254 -508 -362 482 c-200 265 -370 494 -379 508
l-17 26 633 0 632 0 -253 -508z m-783 -62 l384 -512 -768 -3 c-423 -1 -770 0
-773 2 -3 4 58 89 101 141 4 6 107 143 228 305 121 162 230 307 242 322 12 15
60 79 107 143 47 63 87 115 90 115 3 0 178 -231 389 -513z m-1699 -7 c137
-276 250 -503 250 -505 0 -3 -283 -5 -630 -5 -346 0 -630 3 -630 8 0 4 10 19
23 34 12 15 45 58 72 95 28 37 52 70 55 73 3 3 57 75 120 160 63 85 119 160
125 167 20 24 31 39 70 93 22 30 43 60 48 65 4 6 60 79 123 163 63 83 117 152
119 152 3 0 117 -225 255 -500z m3269 -17 c198 -266 361 -485 361 -488 0 -3
-283 -5 -630 -5 -346 0 -630 2 -630 5 0 3 113 231 251 507 243 487 251 500
269 482 10 -10 180 -236 379 -501z m-2951 -652 c6 0 12 -7 12 -13 0 -7 18 -67
39 -133 21 -66 62 -194 90 -285 45 -141 75 -236 112 -350 17 -55 80 -253 124
-395 26 -82 64 -204 85 -270 21 -66 64 -201 95 -300 31 -99 60 -191 65 -205 5
-14 25 -79 45 -145 20 -66 40 -129 45 -140 5 -11 14 -38 19 -60 6 -22 24 -79
39 -128 16 -48 28 -87 27 -87 -1 0 -33 37 -71 83 -38 45 -71 84 -74 87 -3 3
-39 45 -80 95 -41 49 -85 101 -97 115 -11 14 -76 90 -143 170 -67 80 -132 156
-143 170 -12 14 -67 79 -122 145 -55 66 -102 122 -105 125 -3 3 -41 48 -85
100 -44 52 -82 97 -85 100 -3 3 -50 59 -105 125 -54 66 -102 122 -105 125 -3
3 -64 75 -135 160 -71 85 -179 214 -240 285 -60 72 -129 153 -151 180 -23 28
-116 138 -207 245 -90 107 -163 197 -162 200 3 4 1272 5 1313 1z m1812 -6 c0
-5 -12 -46 -26 -90 -23 -72 -101 -318 -275 -870 -34 -104 -74 -233 -91 -285
-16 -52 -40 -129 -53 -170 -13 -41 -37 -118 -53 -170 -90 -283 -154 -488 -187
-590 -75 -235 -107 -336 -117 -372 -6 -21 -14 -38 -18 -38 -4 0 -41 109 -83
243 -71 229 -184 587 -318 1012 -34 105 -90 282 -125 395 -36 113 -92 288
-124 390 -109 343 -170 540 -170 548 0 4 369 7 820 7 540 0 820 -3 820 -10z
m1488 6 c3 -1 -124 -153 -225 -271 -11 -14 -76 -90 -143 -170 -67 -80 -132
-156 -143 -170 -12 -14 -67 -79 -122 -145 -55 -66 -105 -126 -112 -133 -7 -7
-29 -34 -50 -60 -21 -26 -42 -52 -48 -58 -27 -30 -110 -128 -129 -152 -11 -15
-23 -29 -27 -32 -3 -3 -34 -39 -68 -80 -99 -118 -135 -162 -146 -174 -6 -6
-69 -81 -140 -166 -71 -85 -132 -157 -135 -160 -3 -3 -36 -42 -74 -88 -37 -45
-81 -97 -96 -115 -16 -17 -95 -111 -175 -207 -247 -293 -291 -344 -282 -325 6
13 111 343 172 540 26 83 53 168 61 190 8 22 25 76 38 120 13 44 47 152 76
240 28 88 55 174 60 190 8 30 16 54 135 430 36 116 91 289 121 385 31 96 73
229 95 295 l39 120 658 -1 c361 -1 658 -2 660 -3z"/>
</g>
</svg>
